MarkerMocapFLsDeGroote.mot
version=1
nRows=18
nColumns=39
inDegrees=no
endheader
time	tibant_l	tibpost_l	gasmed_l	gaslat_l	soleus_l	edl_l	ehl_l	fdl_l	fhl_l	perbrev_l	perlong_l	bflh_l	bfsh_l	recfem_l	semimem_l	semiten_l	vasint_l	vaslat_l	vasmed_l	tibant_r	tibpost_r	gasmed_r	gaslat_r	soleus_r	edl_r	ehl_r	fdl_r	fhl_r	perbrev_r	perlong_r	bflh_r	bfsh_r	recfem_r	semimem_r	semiten_r	vasint_r	vaslat_r	vasmed_r
23.99000000	0.37219584	0.38159378	0.51038488	0.49618560	0.38166393	0.51014692	0.47016772	0.49659793	0.46199451	0.23654245	0.47085979	0.40079671	0.19767441	0.51388239	0.37999898	0.42590469	0.32346185	0.33620182	0.31122810	0.36306516	0.38447073	0.53963280	0.52921501	0.39186555	0.50251472	0.46218274	0.49925842	0.46590113	0.23857199	0.47316510	0.40094076	0.22968574	0.49921187	0.39674888	0.44393311	0.28716959	0.29980884	0.27620089
24	0.37157835	0.38182152	0.51201082	0.49773723	0.38242540	0.50962457	0.46962196	0.49681203	0.46229820	0.23669290	0.47102777	0.40256083	0.19894446	0.51235640	0.38206648	0.42837311	0.32258126	0.33538218	0.31041151	0.36295945	0.38449843	0.53976035	0.52936890	0.39197115	0.50242733	0.46209122	0.49928344	0.46593969	0.23859321	0.47318967	0.40068865	0.22976034	0.49929611	0.39658672	0.44375054	0.28702385	0.29966453	0.27605618
24.01000000	0.37097777	0.38203797	0.51371344	0.49936108	0.38315545	0.50911752	0.46909205	0.49701507	0.46258755	0.23683727	0.47118938	0.40438875	0.20037301	0.51073327	0.38426565	0.43100431	0.32155213	0.33441749	0.30945449	0.36284172	0.38452914	0.53989984	0.52953154	0.39208843	0.50233003	0.46198931	0.49931115	0.46598247	0.23861678	0.47321698	0.40043123	0.22983018	0.49938783	0.39641917	0.44356096	0.28688699	0.29952922	0.27592031
24.02000000	0.37040598	0.38223952	0.51546814	0.50103605	0.38384097	0.50863567	0.46858837	0.49720371	0.46285763	0.23697294	0.47134164	0.40626201	0.20194154	0.50901851	0.38657878	0.43377456	0.32037281	0.33330355	0.30835430	0.36270470	0.38456470	0.54005924	0.52971457	0.39222453	0.50221680	0.46187073	0.49934323	0.46603205	0.23864413	0.47324869	0.40016669	0.22989588	0.49948792	0.39624452	0.44336282	0.28675782	0.29940171	0.27579210
24.03000000	0.36987139	0.38242404	0.51725275	0.50274367	0.38447359	0.50818591	0.46811814	0.49737605	0.46310548	0.23709824	0.47148259	0.40816200	0.20362785	0.50721916	0.38898636	0.43665795	0.31904546	0.33203978	0.30711177	0.36254348	0.38460629	0.54024373	0.52992127	0.39238407	0.50208363	0.46173124	0.49938071	0.46609008	0.23867621	0.47328591	0.39989508	0.22995755	0.49959736	0.39606121	0.44315475	0.28663623	0.29928184	0.27567143
24.04000000	0.36939023	0.38258695	0.51903711	0.50445739	0.38503621	0.50778171	0.46769547	0.49752790	0.46332479	0.23720977	0.47160832	0.41007326	0.20541236	0.50534631	0.39147170	0.43963186	0.31757665	0.33063005	0.30573239	0.36235785	0.38465384	0.54045319	0.53015119	0.39256701	0.50193034	0.46157068	0.49942352	0.46615651	0.23871302	0.47332863	0.39961816	0.23001422	0.49971731	0.39586829	0.44293601	0.28652420	0.29917154	0.27556026
24.05000000	0.36898693	0.38272121	0.52078492	0.50614426	0.38550289	0.50744335	0.46734160	0.49765284	0.46350589	0.23730235	0.47171287	0.41198364	0.20728103	0.50341199	0.39402200	0.44267811	0.31597219	0.32907766	0.30422126	0.36214974	0.38470673	0.54068506	0.53040170	0.39277112	0.50175855	0.46139074	0.49947108	0.46623048	0.23875410	0.47337636	0.39933825	0.23006439	0.49984880	0.39566543	0.44270651	0.28642476	0.29907376	0.27546161
24.06000000	0.36868828	0.38281932	0.52246021	0.50777188	0.38584562	0.50719304	0.46707978	0.49774399	0.46363843	0.23737038	0.47178981	0.41388239	0.20922432	0.50142836	0.39662650	0.44578068	0.31423533	0.32738344	0.30258119	0.36191989	0.38476463	0.54093806	0.53067022	0.39299535	0.50156889	0.46119209	0.49952307	0.46631157	0.23879926	0.47342887	0.39905763	0.23010650	0.49999236	0.39545318	0.44246717	0.28634113	0.29899160	0.27537864
24.07000000	0.36851855	0.38287459	0.52403142	0.50931281	0.38603933	0.50705087	0.46693107	0.49779529	0.46371317	0.23740884	0.47183335	0.41575909	0.21123514	0.49940100	0.39927456	0.44892311	0.31236036	0.32553906	0.30080586	0.36167256	0.38482634	0.54120715	0.53095133	0.39323524	0.50136491	0.46097842	0.49957841	0.46639812	0.23884760	0.47348513	0.39877917	0.23013890	0.50014719	0.39523393	0.44222120	0.28627668	0.29892834	0.27531471
24.08000000	0.36849234	0.38288309	0.52547766	0.51075147	0.38606917	0.50702893	0.46690811	0.49780317	0.46372467	0.23741477	0.47184007	0.41760228	0.21330703	0.49731457	0.40195331	0.45208595	0.31031812	0.32351197	0.29886442	0.36142115	0.38488843	0.54147755	0.53122939	0.39347761	0.50115764	0.46076131	0.49963400	0.46648534	0.23889648	0.47354208	0.39850610	0.23015938	0.50031203	0.39501122	0.44197338	0.28623590	0.29888834	0.27527426
24.09000000	0.36860435	0.38284669	0.52679893	0.51209467	0.38594150	0.50712273	0.46700623	0.49776940	0.46367544	0.23738942	0.47181136	0.41939614	0.21543190	0.49514837	0.40464321	0.45524215	0.30807111	0.32126029	0.29671666	0.36117904	0.38494763	0.54173479	0.53148852	0.39370962	0.50095813	0.46055232	0.49968691	0.46656863	0.23894330	0.47359668	0.39823927	0.23016459	0.50048892	0.39478540	0.44172484	0.28622551	0.29887815	0.27526396
24.10000000	0.36882872	0.38277333	0.52801516	0.51337111	0.38568475	0.50731072	0.46720288	0.49770127	0.46357627	0.23733844	0.47175368	0.42111871	0.21759785	0.49289035	0.40731397	0.45835280	0.30558788	0.31874725	0.29432771	0.36094723	0.38500375	0.54197710	0.53172574	0.39393047	0.50076719	0.46035230	0.49973701	0.46664772	0.23898789	0.47364873	0.39797513	0.23015044	0.50068521	0.39455070	0.44146935	0.28625371	0.29890581	0.27529193
24.11000000	0.36913200	0.38267315	0.52914919	0.51461445	0.38533553	0.50756502	0.46746885	0.49760814	0.46344103	0.23726914	0.47167535	0.42274354	0.21978749	0.49055650	0.40992280	0.46136522	0.30286574	0.31596449	0.29169158	0.36071705	0.38505896	0.54221316	0.53194838	0.39414853	0.50057768	0.46015377	0.49978621	0.46672563	0.23903195	0.47370022	0.39770731	0.23011317	0.50091066	0.39429786	0.44119643	0.28632788	0.29897859	0.27536550
24.12000000	0.36948405	0.38255541	0.53013917	0.51584746	0.38492701	0.50786048	0.46777785	0.49749854	0.46328230	0.23718812	0.47158389	0.42424166	0.22197470	0.48817398	0.41241271	0.46421138	0.29991855	0.31292088	0.28881815	0.36047894	0.38511552	0.54245250	0.53216524	0.39437281	0.50038170	0.45994846	0.49983654	0.46680558	0.23907730	0.47375325	0.39742876	0.23005037	0.50117391	0.39401776	0.44089561	0.28645257	0.29910110	0.27548920
24.13000000	0.36985776	0.38242869	0.53035258	0.51707857	0.38448962	0.50817446	0.46810616	0.49738040	0.46311174	0.23710142	0.47148617	0.42558406	0.22412165	0.48578029	0.41471164	0.46680847	0.29677920	0.30965560	0.28573496	0.36022610	0.38517497	0.54270211	0.53238295	0.39460953	0.50017369	0.45973056	0.49988936	0.46688975	0.23912519	0.47380933	0.39713240	0.22996149	0.50148106	0.39370277	0.44055803	0.28662845	0.29927418	0.27566371
24.14000000	0.37022295	0.38230311	0.53046940	0.51830671	0.38405846	0.50848160	0.46842730	0.49726315	0.46294299	0.23701600	0.47139005	0.42674678	0.22617819	0.48341558	0.41676531	0.46912686	0.29350026	0.30624735	0.28249210	0.35995554	0.38523790	0.54296449	0.53260437	0.39486121	0.49995120	0.45949748	0.49994516	0.46697900	0.23917615	0.47386905	0.39681101	0.22984705	0.50183648	0.39334665	0.44017596	0.28685385	0.29949649	0.27588742
24.15000000	0.37054117	0.38219226	0.53051704	0.51952766	0.38367972	0.50874952	0.46870739	0.49715952	0.46279424	0.23694101	0.47130578	0.42771685	0.22808448	0.48113885	0.41854017	0.47112939	0.29018226	0.30283711	0.27919559	0.35966802	0.38530400	0.54323828	0.53282904	0.39512683	0.49971487	0.45924989	0.50000366	0.46707293	0.23922998	0.47393221	0.39645807	0.22970717	0.50224377	0.39294474	0.43974299	0.28712777	0.29976740	0.27615937
24.16000000	0.37076438	0.38211370	0.53054690	0.52010584	0.38341237	0.50893760	0.46890399	0.49708600	0.46268895	0.23688810	0.47124638	0.42849566	0.22977589	0.47904480	0.41998601	0.47276006	0.28699343	0.29963444	0.27602598	0.35936678	0.38537240	0.54351927	0.53305239	0.39540311	0.49946737	0.45899060	0.50006407	0.46717034	0.23928602	0.47399804	0.39606929	0.22954021	0.50270621	0.39249430	0.43925453	0.28745246	0.30008955	0.27648183
